<svg width="24" height="24" viewBox="0 0 24 24" fill="none" xmlns="http://www.w3.org/2000/svg">
<g clip-path="url(#clip0_2286_2169)">
<path d="M12.2064 23.2169L11.5032 17.0764C11.4766 16.8435 11.3357 16.6393 11.1274 16.5317C11.1274 16.5317 8.31504 15.0786 8.31495 15.0785C8.11611 14.9758 7.86833 14.9759 7.66943 15.0785L4.85693 16.5317C4.64872 16.6393 4.50776 16.8435 4.48114 17.0764L3.77801 23.2169C3.74829 23.4765 3.86497 23.7312 4.08106 23.8782C4.19993 23.9591 4.33798 24 4.47659 24C4.58993 24 4.7037 23.9726 4.80743 23.9173L7.99217 22.2188L11.1769 23.9173C11.2806 23.9726 11.3944 24 11.5077 24C11.6464 24 11.7844 23.9591 11.9033 23.8782C12.1194 23.7312 12.2361 23.4765 12.2064 23.2169Z" fill="#FF405C"/>
<path d="M12.2063 23.2169L11.5032 17.0763C11.4766 16.8435 11.3356 16.6392 11.1274 16.5317C11.1274 16.5317 8.31502 15.0785 8.31492 15.0785C8.20158 15.0199 8.07234 14.996 7.94531 15.0042V22.2437L7.99219 22.2187L11.1769 23.9172C11.2807 23.9726 11.3944 24 11.5078 24C11.6464 24 11.7845 23.9591 11.9033 23.8781C12.1193 23.7312 12.2361 23.4765 12.2063 23.2169Z" fill="#EA1C81"/>
<path d="M7.99219 24C7.60387 24 7.28906 23.6851 7.28906 23.2968V6.60938C7.28906 6.22106 7.60387 5.90625 7.99219 5.90625C8.3805 5.90625 8.69531 6.22106 8.69531 6.60938V23.2968C8.69531 23.6851 8.38055 24 7.99219 24Z" fill="#FFD845"/>
<path d="M7.99219 5.90625C7.97634 5.90625 7.96087 5.90761 7.94531 5.90864V23.9976C7.96087 23.9986 7.97634 24 7.99219 24C8.3805 24 8.69531 23.6852 8.69531 23.2969V6.60938C8.69531 6.22106 8.38055 5.90625 7.99219 5.90625Z" fill="#FFB454"/>
<path d="M10.4719 5.06484L8.59694 0.438984C8.48936 0.173625 8.23164 0 7.94529 0C7.65893 0 7.40121 0.173625 7.29368 0.438984L5.41868 5.06484C5.2961 5.36728 5.39772 5.7143 5.66407 5.90287L7.53907 7.23009C7.6608 7.31625 7.80302 7.35933 7.94533 7.35933C8.0876 7.35933 8.22986 7.31625 8.3516 7.23009L10.2266 5.90287C10.4929 5.7143 10.5945 5.36728 10.4719 5.06484Z" fill="#F0F5FA"/>
<path d="M20.2231 8.86653C20.1736 7.50284 19.6034 6.30664 18.5666 5.39712L15.4973 2.70415C15.2176 2.45876 15.221 2.09876 15.3091 1.86504C15.3609 1.72714 15.5284 1.40637 15.961 1.40637C16.3494 1.40637 16.6642 1.09156 16.6642 0.703247C16.6642 0.314935 16.3494 0.00012207 15.961 0.00012207C15.0651 0.00012207 14.311 0.524841 13.993 1.36958C13.6688 2.23062 13.8952 3.16939 14.5698 3.76123C14.7138 3.88756 14.8572 4.01454 15.0012 4.14082C15.6691 4.72625 16.0078 5.47348 16.0078 6.36167V8.86648L16.8342 12.1128L16.0078 15.1736V17.6379C16.0078 18.5261 15.6691 19.2733 15.0012 19.8588C14.8571 19.9851 14.7139 20.1125 14.5698 20.2389C13.8952 20.8307 13.6688 21.7695 13.993 22.6305C14.311 23.4753 15.0651 24 15.961 24C16.3494 24 16.6642 23.6852 16.6642 23.2969C16.6642 22.9086 16.3494 22.5938 15.961 22.5938C15.5284 22.5938 15.3609 22.273 15.3091 22.1351C15.221 21.9014 15.2176 21.5414 15.4973 21.296L18.5666 18.6031C19.5933 17.7023 20.1624 16.5205 20.2215 15.1734C20.2249 15.0956 19.3554 11.7298 19.3554 11.7298C19.3554 11.7298 20.2254 8.93122 20.2231 8.86653ZM18.8203 14.9384C18.8203 15.9811 18.4229 16.8584 17.6392 17.546L17.4127 17.7447C17.4135 17.7093 17.414 17.6737 17.414 17.638V6.36162C17.414 6.32609 17.4135 6.29075 17.4127 6.25545L17.6392 6.45415C18.423 7.14176 18.8203 8.01903 18.8203 9.06167V14.9384Z" fill="#74564F"/>
<path d="M20.223 8.86653C20.1735 7.50284 19.6034 6.30663 18.5666 5.39712L18.1165 5.0022V6.95763C18.5833 7.55356 18.8203 8.25828 18.8203 9.06171V14.9384C18.8203 15.7419 18.5833 16.4466 18.1165 17.0426V18.998L18.5666 18.6031C19.5933 17.7023 20.1624 16.5205 20.2214 15.1734C20.2248 15.0956 19.3554 11.7298 19.3554 11.7298C19.3554 11.7298 20.2254 8.93121 20.223 8.86653Z" fill="#604A43"/>
<path d="M16.0078 8.86633H20.2266V15.1735H16.0078V8.86633Z" fill="#FFD845"/>
<path d="M10.4719 5.06484L8.59692 0.438984C8.48934 0.173625 8.23162 0 7.94531 0V7.35933C8.08758 7.35933 8.22984 7.31625 8.35153 7.23009L10.2265 5.90287C10.4929 5.7143 10.5945 5.36728 10.4719 5.06484Z" fill="#D7E3F0"/>
<path d="M18.1165 8.86633H20.2265V15.1735H18.1165V8.86633Z" fill="#FFB454"/>
</g>
<defs>
<clipPath id="clip0_2286_2169">
<rect width="24" height="24" fill="white"/>
</clipPath>
</defs>
</svg>
