<svg width="40" height="40" viewBox="0 0 40 40" fill="none" xmlns="http://www.w3.org/2000/svg">
<g clip-path="url(#clip0_2286_2527)">
<path d="M35.2679 1.17173C35.2677 0.524536 34.7432 0 34.096 0H28.5876L21.8197 2.21541L15.0519 0H8.94507V33.9163C8.94507 33.9163 32.6585 33.906 35.2738 33.906L35.2728 28.464L29.2581 17.5388L35.2689 6.61358L35.2679 1.17173Z" fill="#FFD845"/>
<path d="M21.6798 33.911C27.7655 33.9085 34.0045 33.906 35.2738 33.906L35.2729 28.464L29.258 17.5388L35.2689 6.61366L35.2679 1.17165C35.2677 0.524536 34.7432 0 34.096 0H28.5876L21.8197 2.21541L21.6797 2.16955L21.6798 33.911Z" fill="#FFB454"/>
<path fill-rule="evenodd" clip-rule="evenodd" d="M28.5876 0H15.0519C15.0519 3.64269 12.0497 6.61366 8.36865 6.61366V28.464C11.3909 28.464 13.9556 30.4668 14.7768 33.1998H28.8628C29.684 30.4669 32.2487 28.464 35.2709 28.464V6.61366C31.5899 6.61366 28.5876 3.64269 28.5876 0Z" fill="#D98FF8"/>
<path fill-rule="evenodd" clip-rule="evenodd" d="M28.5876 0H21.6797V33.1998H28.8627C29.6839 30.4669 32.2485 28.464 35.2708 28.464V6.61366C31.5899 6.61366 28.5876 3.64269 28.5876 0Z" fill="#CA75F5"/>
<path d="M9.25775 0H7.02609C5.02568 0 3.39832 1.62744 3.39832 3.62777V6.91374L5.05146 10.1015L3.39832 12.7732V22.3045L5.05146 25.4532L3.39832 28.1639V36.2086C3.86762 35.7393 9.25783 32.7445 9.25783 32.7445L9.25775 0Z" fill="#74564F"/>
<path d="M35.4299 13.4373H32.6956C32.3328 13.4373 31.9906 13.6052 31.7687 13.8922L29.5029 16.8219C29.1763 17.2441 29.1763 17.8335 29.5029 18.2558L31.7687 21.1855C31.9906 21.4725 32.3329 21.6405 32.6956 21.6405H35.4298C36.077 21.6405 36.6017 21.1158 36.6017 20.4686V14.6091C36.6018 13.9619 36.0771 13.4373 35.4299 13.4373Z" fill="#FFB454"/>
<path d="M19.4105 17.1007C19.1657 17.1007 18.9231 17.024 18.7194 16.8753C18.3917 16.6361 18.2111 16.2443 18.2419 15.8398L18.3906 13.8866L17.1113 12.3669C16.8501 12.0565 16.7679 11.633 16.8941 11.2475C17.0204 10.8619 17.3371 10.5691 17.7313 10.4733L19.6349 10.0112L20.6849 8.32489C20.8989 7.98129 21.275 7.77246 21.6796 7.77246H21.6823C22.088 7.7734 22.4644 7.9841 22.6772 8.3295L23.7051 9.99717L25.6332 10.4747C26.027 10.5723 26.3424 10.8665 26.4669 11.2527C26.5914 11.6388 26.5074 12.0618 26.2445 12.371L24.9762 13.8638L25.1179 15.8451C25.1468 16.2498 24.9644 16.6407 24.6356 16.8784C24.3069 17.1161 23.8787 17.1669 23.5033 17.0126L21.6915 16.2676L19.851 17.0147C19.7089 17.0723 19.5593 17.1007 19.4105 17.1007Z" fill="#FF405C"/>
<path d="M26.2892 21.7967H17.0703C16.4231 21.7967 15.8984 21.272 15.8984 20.6248C15.8984 19.9776 16.4231 19.4529 17.0703 19.4529H26.2892C26.9364 19.4529 27.4611 19.9776 27.4611 20.6248C27.4611 21.272 26.9364 21.7967 26.2892 21.7967Z" fill="#383D40"/>
<path d="M23.6328 26.3669H19.7266C19.0794 26.3669 18.5547 25.8423 18.5547 25.1951C18.5547 24.5479 19.0794 24.0232 19.7266 24.0232H23.6328C24.28 24.0232 24.8047 24.5479 24.8047 25.1951C24.8047 25.8423 24.28 26.3669 23.6328 26.3669Z" fill="#383D40"/>
<path fill-rule="evenodd" clip-rule="evenodd" d="M7.06514 33.9163H35.2736V38.828H7.06514C5.71458 38.828 4.60925 37.7229 4.60925 36.3721C4.60925 35.0214 5.71434 33.9163 7.06514 33.9163Z" fill="#F0F5FA"/>
<path fill-rule="evenodd" clip-rule="evenodd" d="M21.6797 33.9163H35.2736V38.828H21.6797V33.9163Z" fill="#D7E3F0"/>
<path d="M8.46657 6.91382H3.39832V12.7733H8.46665C10.0821 12.7733 11.3964 11.459 11.3964 9.84353C11.3964 8.22805 10.0821 6.91382 8.46657 6.91382Z" fill="#FFF36C"/>
<path d="M8.46657 22.3044H3.39832V28.1639H8.46665C10.0821 28.1639 11.3964 26.8496 11.3964 25.2342C11.3964 23.6187 10.0821 22.3044 8.46657 22.3044Z" fill="#FFF36C"/>
<path d="M34.1017 39.9999H7.02609C5.02575 39.9999 3.39832 38.3725 3.39832 36.3722C3.39832 34.3718 5.02575 32.7444 7.02609 32.7444H34.1017C34.7489 32.7444 35.2736 33.2691 35.2736 33.9163C35.2736 34.5635 34.7489 35.0882 34.1017 35.0882H7.02609C6.31811 35.0882 5.74209 35.6642 5.74209 36.3722C5.74209 37.0801 6.31811 37.6562 7.02609 37.6562H34.1017C34.7489 37.6562 35.2736 38.1808 35.2736 38.828C35.2736 39.4752 34.7489 39.9999 34.1017 39.9999Z" fill="#B760EA"/>
<path d="M26.2891 19.4529H21.6797V21.7966H26.2891C26.9363 21.7966 27.4609 21.2719 27.4609 20.6248C27.4609 19.9776 26.9363 19.4529 26.2891 19.4529Z" fill="#2E2E2E"/>
<path d="M23.6328 24.0232H21.6797V26.3669H23.6328C24.28 26.3669 24.8047 25.8423 24.8047 25.1951C24.8047 24.5479 24.28 24.0232 23.6328 24.0232Z" fill="#2E2E2E"/>
<path d="M26.4669 11.2527C26.3424 10.8666 26.0271 10.5723 25.6332 10.4747L23.7051 9.99717L22.6773 8.3295C22.4644 7.9841 22.0881 7.7734 21.6823 7.77246H21.6797V16.2724L21.6916 16.2675L23.5034 17.0126C23.8787 17.1668 24.307 17.1161 24.6357 16.8783C24.9644 16.6406 25.1468 16.2498 25.1179 15.845L24.9762 13.8638L26.2446 12.3709C26.5074 12.0619 26.5915 11.6388 26.4669 11.2527Z" fill="#EA1C81"/>
<path d="M21.6797 35.0882H34.1017C34.7489 35.0882 35.2736 34.5635 35.2736 33.9163C35.2736 33.2691 34.7489 32.7444 34.1017 32.7444H21.6797V35.0882Z" fill="#A24BDB"/>
<path d="M34.1017 37.6562H21.6797V40H34.1017C34.7489 40 35.2736 39.4753 35.2736 38.8281C35.2736 38.1809 34.7489 37.6562 34.1017 37.6562Z" fill="#A24BDB"/>
</g>
<defs>
<clipPath id="clip0_2286_2527">
<rect width="40" height="40" fill="white"/>
</clipPath>
</defs>
</svg>
