<svg width="16" height="16" viewBox="0 0 16 16" fill="none" xmlns="http://www.w3.org/2000/svg">
<g clip-path="url(#clip0_2286_4117)">
<path d="M8 4.77899C4.90634 4.77899 2.38951 7.29585 2.38951 10.3895C2.38951 13.4832 4.90637 16 8 16C11.0936 16 13.6105 13.4832 13.6105 10.3895C13.6105 7.29585 11.0937 4.77899 8 4.77899ZM8 14.1879C5.90554 14.1879 4.20159 12.4839 4.20159 10.3895C4.20159 8.29503 5.90554 6.59107 8 6.59107C10.0945 6.59107 11.7984 8.29503 11.7984 10.3895C11.7984 12.4839 10.0945 14.1879 8 14.1879Z" fill="#FFD845"/>
<path d="M8 4.77899V6.59107C10.0945 6.59107 11.7984 8.29503 11.7984 10.3895C11.7984 12.4839 10.0945 14.1879 8 14.1879V16C11.0937 16 13.6105 13.4831 13.6105 10.3895C13.6105 7.29582 11.0937 4.77899 8 4.77899Z" fill="#FFB454"/>
<path d="M11.859 2.10092C11.8331 1.95561 11.7402 1.83101 11.6084 1.76462L8.21073 0.0540182C8.07826 -0.0127164 7.92186 -0.0127164 7.78927 0.0540182L4.39161 1.76466C4.25977 1.83101 4.16691 1.95564 4.14101 2.10095C4.11508 2.24626 4.15913 2.39529 4.25989 2.50314L5.58018 3.91653C5.66882 4.01142 5.79285 4.06528 5.92267 4.06528H10.0774C10.2072 4.06528 10.3312 4.01142 10.4198 3.91653L11.7401 2.50314C11.8409 2.39526 11.8849 2.24623 11.859 2.10092Z" fill="#FF405C"/>
<path d="M11.859 2.10092C11.8331 1.95561 11.7402 1.83101 11.6084 1.76462L8.21073 0.0540182C8.14447 0.0206509 8.07223 0.00396729 7.99997 0.00396729V4.06525H10.0774C10.2072 4.06525 10.3312 4.01139 10.4198 3.9165L11.7401 2.50311C11.8409 2.39526 11.8849 2.24623 11.859 2.10092Z" fill="#EA1C81"/>
<path d="M9.55989 2.19549L8.40391 0.230978C8.31971 0.0878548 8.16606 0 8 0C7.83395 0 7.68032 0.0878548 7.59609 0.230978L6.44011 2.19549C6.368 2.31797 6.35544 2.46656 6.40587 2.59943L6.84742 3.76285C6.91647 3.94487 7.0909 4.06522 7.28554 4.06522H8.7144C8.90904 4.06522 9.08347 3.94487 9.15252 3.76285L9.59407 2.59943C9.64456 2.46659 9.63197 2.318 9.55989 2.19549Z" fill="#FF637B"/>
<path d="M9.55989 2.19549L8.40391 0.230978C8.31971 0.0878548 8.16606 0 8 0V4.06525H8.71446C8.9091 4.06525 9.08353 3.9449 9.15258 3.76288L9.59413 2.59946C9.64456 2.46659 9.63197 2.318 9.55989 2.19549Z" fill="#FF405C"/>
<path fill-rule="evenodd" clip-rule="evenodd" d="M7.19549 7.23555H8.8045C9.06331 7.23555 9.27314 7.02572 9.27314 6.76691V4.77899H6.72685V6.76691C6.72685 7.02572 6.93668 7.23555 7.19549 7.23555Z" fill="#FFF36C"/>
<path fill-rule="evenodd" clip-rule="evenodd" d="M8 4.77899V7.23555H8.8045C9.06332 7.23555 9.27314 7.02572 9.27314 6.76691V4.77899H8Z" fill="#FFDE46"/>
<path d="M5.56306 3.88727H10.4369V5.33109H5.56306V3.88727Z" fill="#FFB454"/>
<path d="M8 3.88727H10.4369V5.33109H8V3.88727Z" fill="#FF8659"/>
</g>
<defs>
<clipPath id="clip0_2286_4117">
<rect width="16" height="16" fill="white"/>
</clipPath>
</defs>
</svg>
